<svg version="1.1" xmlns="http://www.w3.org/2000/svg" xmlns:xlink="http://www.w3.org/1999/xlink" width="512px" height="512px" viewBox="0,0,256,256"><g fill="#f4f5f9" fill-rule="nonzero" stroke="none" stroke-width="1" stroke-linecap="butt" stroke-linejoin="miter" stroke-miterlimit="10" stroke-dasharray="" stroke-dashoffset="0" font-family="none" font-weight="none" font-size="none" text-anchor="none" style="mix-blend-mode: normal"><g transform="scale(0.5,0.5)"><path d="M215.4,96h-71.4h-36.2h-11.8v8.8v39.2v40.4v89l-95.8,-70.9c1.6,-18.1 10.9,-34.9 25.7,-45.8l22.1,-16.4v-44.3c0,-26.5 21.5,-48 48,-48h76.6l49.9,-36.9c9.7,-7.2 21.4,-11.1 33.5,-11.1c12.1,0 23.8,3.9 33.5,11l49.9,37h76.6c26.5,0 48,21.5 48,48v44.3l22.1,16.4c14.8,10.9 24.1,27.7 25.7,45.8l-95.8,70.9v-89v-40.4v-39.2v-8.8h-11.8h-36.2h-71.4zM0,448v-205.9l217.6,161.2c11.1,8.2 24.6,12.7 38.4,12.7c13.8,0 27.3,-4.4 38.4,-12.7l217.6,-161.2v205.9v0c0,35.3 -28.7,64 -64,64h-384c-35.3,0 -64,-28.7 -64,-64zM176,160h160c8.8,0 16,7.2 16,16c0,8.8 -7.2,16 -16,16h-160c-8.8,0 -16,-7.2 -16,-16c0,-8.8 7.2,-16 16,-16zM176,224h160c8.8,0 16,7.2 16,16c0,8.8 -7.2,16 -16,16h-160c-8.8,0 -16,-7.2 -16,-16c0,-8.8 7.2,-16 16,-16z"></path></g></g></svg>